<?xml version="1.0" encoding="utf-8"?>
<svg xmlns="http://www.w3.org/2000/svg" viewBox="-5635.3641 -7512.8455 11273.25 13415.0537" width="11273.2px" height="13415.1px" preserveAspectRatio="none"><g id="outputsvg" transform="matrix(1, 0, 0, 1, -386.10528564453125, -827.3684692382831)"><g id="l78yehsGYPfqbCvUKdRFYB7" fill="#ffffff" style="" transform="matrix(1, 0, 0, 1, -7036.008789, -7105.477051)"><g style="transform: none;"><path id="psL5SuroE" d="M 6763 13833 c -24 -2 -43 -8 -43 -12 0 -4 -62 -11 -137 -14 -75 -3 -139 -10 -142 -15 -3 -5 -27 -12 -53 -16 -27 -4 -48 -11 -48 -15 0 -5 -24 -11 -52 -14 -128 -15 -158 -20 -158 -28 0 -5 -18 -12 -40 -15 -22 -4 -40 -10 -40 -14 0 -4 -18 -10 -39 -14 -21 -3 -41 -13 -45 -21 -3 -8 -15 -15 -26 -15 -11 0 -20 -4 -20 -9 0 -5 -13 -12 -30 -16 -16 -4 -30 -11 -30 -16 0 -5 -6 -9 -14 -9 -8 0 -21 -6 -28 -13 -7 -7 -34 -19 -60 -26 -27 -8 -48 -17 -48 -22 0 -4 -13 -10 -29 -14 -16 -3 -32 -13 -35 -21 -3 -8 -15 -14 -26 -14 -11 0 -20 -4 -20 -10 0 -5 -10 -10 -23 -10 -22 0 -57 -31 -57 -50 0 -6 -13 -10 -29 -10 -18 0 -38 -10 -52 -25 -13 -13 -28 -25 -34 -25 -5 -1 -21 -14 -35 -30 -13 -17 -30 -30 -37 -30 -7 0 -13 -4 -13 -10 0 -5 -11 -10 -25 -10 -14 0 -29 -8 -35 -20 -6 -11 -22 -23 -35 -26 -14 -3 -25 -10 -25 -14 0 -5 -15 -12 -32 -16 -18 -3 -42 -17 -54 -29 -12 -13 -35 -26 -52 -30 -18 -3 -32 -10 -32 -15 0 -5 -13 -11 -30 -15 -17 -4 -30 -10 -30 -15 0 -5 -14 -11 -31 -15 -17 -4 -33 -13 -36 -21 -3 -7 -21 -16 -41 -20 -20 -4 -45 -18 -57 -30 -12 -13 -28 -24 -34 -24 -6 0 -14 -6 -17 -14 -3 -8 -18 -18 -34 -21 -16 -3 -31 -13 -34 -21 -3 -8 -10 -14 -16 -14 -6 0 -20 -9 -32 -20 -12 -11 -27 -20 -34 -20 -6 0 -14 -7 -18 -15 -3 -8 -12 -15 -21 -15 -8 0 -15 -4 -15 -10 0 -5 -18 -13 -40 -16 -31 -5 -42 -12 -46 -30 -3 -13 -12 -24 -19 -24 -7 0 -42 -29 -78 -65 -36 -36 -70 -65 -77 -65 -6 0 -13 -6 -16 -14 -3 -8 -16 -17 -30 -20 -13 -4 -40 -22 -60 -41 -20 -19 -41 -35 -47 -35 -7 -1 -23 -15 -37 -32 -14 -17 -33 -38 -42 -47 -10 -8 -18 -20 -18 -26 0 -6 -13 -21 -30 -35 -16 -14 -30 -29 -30 -33 0 -5 -14 -22 -30 -39 -17 -16 -30 -36 -30 -44 0 -8 -5 -14 -10 -14 -6 0 -15 -11 -20 -25 -5 -14 -14 -25 -19 -25 -5 0 -12 -12 -16 -27 -3 -15 -17 -37 -31 -50 -13 -12 -24 -31 -24 -43 0 -11 -6 -23 -14 -26 -8 -3 -18 -19 -21 -35 -4 -16 -10 -29 -14 -29 -4 0 -14 -19 -21 -42 -7 -24 -16 -46 -21 -49 -5 -3 -12 -29 -16 -57 -3 -29 -9 -52 -13 -52 -4 0 -10 -18 -14 -40 -3 -22 -10 -40 -15 -40 -5 0 -11 -21 -14 -46 -2 -26 -9 -49 -14 -53 -6 -3 -13 -26 -16 -50 -3 -24 -10 -47 -15 -50 -12 -8 -32 -69 -32 -97 0 -13 -4 -24 -9 -24 -4 0 -11 -24 -14 -52 -4 -29 -11 -54 -17 -56 -5 -2 -10 -15 -10 -28 0 -14 -7 -27 -15 -30 -9 -4 -15 -19 -15 -39 0 -19 -7 -41 -16 -49 -8 -9 -18 -33 -21 -53 -4 -21 -12 -44 -20 -51 -7 -7 -13 -24 -13 -38 0 -13 -4 -24 -8 -24 -5 0 -14 -22 -21 -50 -7 -27 -17 -50 -21 -50 -5 0 -12 -16 -16 -35 -3 -19 -10 -35 -14 -35 -4 0 -10 -25 -12 -56 -3 -31 -10 -59 -16 -63 -6 -4 -14 -26 -18 -49 -4 -23 -10 -42 -15 -42 -5 0 -12 -18 -15 -40 -4 -22 -10 -40 -14 -40 -12 0 -30 -74 -30 -123 0 -25 -5 -47 -10 -49 -6 -2 -14 -30 -17 -63 -3 -33 -10 -63 -15 -66 -6 -4 -12 -124 -15 -280 -3 -152 -9 -275 -14 -277 -12 -5 -12 -52 1 -52 6 0 10 -9 10 -20 0 -11 -4 -20 -10 -20 -14 0 -13 -97 2 -102 8 -3 11 -101 11 -373 -1 -327 -3 -369 -17 -377 -9 -5 -16 -14 -16 -19 0 -6 -6 -17 -12 -24 -24 -27 -33 -40 -45 -67 -7 -16 -17 -28 -22 -28 -5 0 -12 -11 -15 -25 -4 -14 -11 -25 -16 -25 -6 0 -10 -6 -10 -13 0 -8 -9 -24 -20 -37 -11 -13 -20 -27 -20 -32 0 -5 -11 -19 -24 -31 -13 -12 -27 -37 -30 -54 -4 -18 -11 -33 -15 -33 -5 0 -14 -20 -21 -45 -7 -25 -16 -45 -21 -45 -4 0 -10 -14 -14 -30 -4 -16 -11 -30 -15 -30 -5 0 -12 -16 -16 -35 -3 -19 -10 -35 -14 -35 -4 0 -10 -35 -14 -77 -4 -43 -12 -81 -18 -84 -6 -4 -12 -49 -15 -100 -2 -58 -8 -96 -16 -101 -9 -6 -9 -10 -1 -15 8 -5 14 -64 18 -163 4 -86 11 -156 16 -158 12 -4 13 -62 1 -62 -4 0 -11 -37 -14 -82 -4 -46 -11 -84 -17 -86 -5 -2 -10 -24 -10 -48 0 -55 -22 -174 -32 -174 -4 0 -10 -16 -14 -35 -3 -19 -10 -35 -14 -35 -5 0 -11 -14 -15 -30 -4 -17 -10 -30 -15 -30 -4 0 -11 -15 -14 -34 -4 -19 -11 -36 -17 -38 -6 -2 -13 -22 -16 -46 -3 -23 -9 -42 -13 -42 -7 0 -11 -19 -27 -117 -3 -18 -9 -33 -14 -33 -5 0 -9 -13 -9 -29 0 -16 -7 -36 -14 -44 -8 -8 -18 -38 -22 -66 -4 -28 -10 -51 -15 -51 -5 0 -9 -9 -9 -20 0 -11 -6 -23 -14 -26 -7 -3 -16 -23 -20 -45 -3 -21 -10 -39 -15 -39 -5 0 -12 -16 -15 -35 -4 -19 -10 -35 -15 -35 -4 0 -13 -35 -19 -77 -7 -43 -17 -79 -22 -81 -5 -2 -12 -19 -16 -38 -3 -19 -10 -34 -14 -34 -4 0 -11 -25 -15 -55 -3 -30 -10 -55 -15 -55 -4 0 -11 -16 -14 -35 -4 -19 -11 -35 -15 -35 -5 0 -12 -16 -15 -35 -4 -19 -11 -35 -16 -35 -4 0 -14 -22 -21 -50 -7 -28 -16 -50 -20 -50 -4 0 -10 -13 -14 -30 -4 -16 -11 -30 -15 -30 -5 0 -12 -16 -16 -35 -3 -19 -10 -35 -14 -35 -4 0 -10 -18 -14 -40 -3 -22 -10 -40 -15 -40 -5 0 -12 -36 -16 -79 -4 -51 -12 -81 -20 -85 -7 -2 -16 -18 -20 -35 -4 -17 -10 -31 -15 -31 -4 0 -11 -26 -15 -57 -4 -32 -12 -61 -17 -64 -6 -4 -13 -30 -16 -58 -2 -28 -8 -51 -12 -51 -4 0 -11 -12 -15 -27 -3 -15 -11 -30 -16 -33 -4 -3 -11 -38 -15 -78 -4 -40 -11 -72 -15 -72 -5 0 -9 -27 -9 -60 0 -57 -18 -149 -31 -160 -3 -3 -9 -27 -12 -53 -4 -27 -14 -55 -22 -63 -12 -13 -15 -50 -15 -209 0 -146 -3 -194 -12 -198 -15 -4 -15 -236 0 -246 5 -3 12 -19 16 -35 4 -17 17 -39 29 -51 12 -11 29 -34 37 -50 18 -37 30 -49 52 -58 10 -3 18 -11 18 -17 0 -5 6 -10 14 -10 7 0 30 -16 50 -35 21 -19 49 -38 64 -42 15 -3 30 -10 33 -15 3 -5 25 -12 48 -15 22 -3 41 -9 41 -14 0 -4 20 -11 45 -15 25 -3 45 -10 45 -14 0 -5 29 -12 65 -15 36 -4 65 -11 65 -16 0 -5 9 -9 20 -9 11 0 20 4 20 8 0 5 53 12 117 15 64 4 119 11 122 16 4 5 30 13 59 17 28 3 52 10 52 15 0 5 11 9 24 9 14 0 31 7 40 15 8 8 24 15 35 15 11 0 23 5 26 10 3 6 17 10 31 10 13 0 24 4 24 10 0 5 16 12 35 16 19 3 35 10 35 14 0 5 13 11 30 15 16 4 30 10 30 15 0 5 13 11 30 15 16 4 30 11 30 16 0 5 5 9 12 9 6 0 23 13 37 28 14 16 46 34 71 41 25 7 54 23 65 36 12 12 33 25 48 29 15 3 27 11 27 16 0 6 9 10 19 10 11 0 26 6 33 14 8 7 25 17 38 21 14 4 31 16 38 26 7 11 18 19 23 19 6 0 24 14 41 30 16 16 34 30 38 30 5 0 23 12 39 27 48 44 55 49 84 57 15 3 31 14 34 24 9 24 72 82 89 82 8 0 14 4 14 9 0 5 14 12 30 16 17 4 30 11 30 16 0 5 11 9 25 9 14 0 28 7 31 15 3 8 14 17 25 20 10 4 32 19 48 36 16 16 33 29 38 29 5 0 16 9 26 20 9 11 23 20 30 20 8 0 20 11 27 25 7 14 19 25 26 25 7 0 25 11 40 25 15 14 32 25 38 25 6 1 22 14 36 30 13 17 28 30 32 30 4 0 48 41 99 90 50 50 93 90 96 90 3 0 23 18 45 40 22 22 47 40 54 40 8 0 14 4 14 9 0 5 9 13 20 16 11 3 20 11 20 16 0 19 87 98 114 105 16 4 33 18 39 33 14 29 43 61 56 61 6 0 45 35 89 78 43 43 86 81 95 85 9 3 17 12 17 18 0 6 17 28 39 49 21 20 44 51 52 69 8 17 20 31 26 31 7 0 13 5 13 11 0 6 13 24 29 40 21 21 39 29 64 29 20 0 37 -5 39 -11 2 -6 27 -14 56 -17 29 -2 52 -8 52 -12 0 -4 12 -11 26 -14 15 -4 33 -14 41 -21 8 -8 28 -15 44 -15 16 0 29 -4 29 -9 0 -5 14 -12 30 -16 17 -4 30 -10 30 -14 0 -9 69 -31 99 -31 11 0 21 -4 21 -9 0 -5 16 -12 35 -15 19 -4 35 -11 35 -16 0 -4 14 -11 30 -15 17 -4 30 -10 30 -15 0 -4 12 -11 27 -15 15 -3 30 -11 34 -16 3 -5 29 -12 57 -16 29 -3 52 -9 52 -13 0 -4 25 -11 55 -15 30 -3 55 -11 55 -16 0 -5 12 -9 26 -9 33 0 104 -21 104 -30 0 -4 28 -10 62 -14 34 -3 64 -10 67 -15 3 -4 46 -11 95 -14 49 -4 92 -11 96 -17 4 -6 30 -13 58 -17 29 -3 52 -9 52 -13 0 -4 46 -10 101 -13 56 -3 105 -9 108 -15 3 -5 68 -13 144 -18 76 -6 141 -15 145 -21 4 -5 54 -13 111 -16 57 -3 107 -9 110 -15 3 -5 76 -12 161 -16 89 -4 157 -11 161 -17 4 -6 77 -13 183 -16 97 -3 176 -10 176 -15 0 -4 22 -8 49 -8 37 0 54 -5 75 -25 15 -14 33 -25 41 -25 8 0 17 -11 21 -24 3 -14 12 -27 20 -30 8 -3 14 -12 14 -21 0 -8 4 -15 9 -15 5 0 15 -17 22 -37 6 -21 18 -42 25 -46 8 -4 14 -15 14 -22 0 -8 4 -15 9 -15 6 0 13 -20 17 -45 3 -25 10 -45 15 -45 5 0 9 -7 9 -15 0 -9 7 -18 15 -21 8 -3 17 -21 21 -40 3 -19 9 -34 13 -34 4 0 13 -34 20 -75 8 -41 17 -75 22 -75 5 0 11 -22 15 -50 4 -27 10 -50 15 -50 5 0 11 -22 15 -50 4 -27 10 -50 14 -50 4 0 10 -18 14 -40 3 -22 11 -40 16 -40 5 0 12 -11 16 -25 3 -14 10 -25 14 -25 4 0 10 -18 14 -40 3 -22 10 -40 14 -40 10 0 32 -60 32 -88 0 -12 4 -22 10 -22 5 0 13 -18 16 -40 4 -22 10 -40 14 -40 4 0 10 -18 14 -40 3 -22 10 -40 15 -40 5 0 12 -20 15 -45 4 -25 11 -45 16 -45 5 0 11 -13 15 -30 4 -16 10 -30 15 -30 4 0 11 -27 15 -61 4 -37 12 -63 21 -66 8 -3 14 -12 14 -19 0 -8 6 -17 14 -20 8 -3 18 -19 21 -35 4 -16 10 -29 15 -29 5 0 11 -13 15 -30 4 -16 11 -30 16 -30 5 0 9 -15 9 -34 0 -19 7 -41 15 -50 8 -8 15 -23 15 -34 0 -28 20 -82 31 -82 5 0 12 -18 15 -39 4 -22 13 -42 20 -45 8 -3 14 -17 14 -31 0 -14 4 -25 9 -25 5 0 12 -18 16 -40 4 -22 11 -40 15 -40 5 0 11 -14 15 -30 4 -17 11 -30 16 -30 5 0 9 -11 9 -25 0 -13 6 -28 13 -32 8 -4 19 -29 27 -55 7 -27 16 -48 21 -48 4 0 10 -13 14 -29 3 -16 13 -32 21 -35 8 -3 14 -12 14 -21 0 -8 4 -15 9 -15 5 0 12 -14 16 -30 4 -17 11 -30 16 -30 5 0 9 -6 9 -14 0 -8 6 -21 13 -28 8 -7 17 -27 21 -43 4 -17 16 -38 27 -48 10 -10 19 -25 19 -33 0 -9 7 -22 15 -30 8 -9 15 -24 15 -34 0 -10 7 -20 15 -24 8 -3 15 -12 15 -21 0 -8 5 -15 10 -15 6 0 10 -6 10 -14 0 -7 11 -25 25 -40 14 -15 25 -34 25 -42 0 -7 5 -14 11 -14 12 0 79 -69 79 -82 0 -5 10 -19 23 -31 13 -12 30 -37 38 -54 8 -18 17 -33 20 -33 4 0 9 -9 12 -20 3 -11 12 -20 21 -20 9 0 16 -7 16 -15 0 -8 5 -15 10 -15 6 0 10 -6 10 -13 0 -17 22 -45 97 -123 34 -35 64 -72 68 -83 3 -10 17 -22 30 -25 16 -4 25 -13 25 -26 0 -11 7 -20 15 -20 8 0 15 -7 15 -16 0 -9 25 -40 55 -69 30 -30 55 -57 55 -60 0 -9 27 -35 36 -35 10 0 54 -49 54 -61 0 -5 7 -9 15 -9 8 0 15 -4 15 -10 0 -5 7 -10 15 -10 8 0 15 -4 15 -9 0 -16 49 -60 74 -67 14 -3 26 -10 26 -15 0 -5 7 -9 15 -9 9 0 18 -7 21 -15 4 -8 12 -15 19 -15 8 0 26 -13 42 -28 15 -16 43 -35 61 -43 17 -7 32 -17 32 -21 0 -5 9 -8 20 -8 11 0 28 -9 37 -20 10 -11 23 -20 30 -20 7 0 13 -4 13 -10 0 -5 7 -10 15 -10 9 0 18 -7 21 -15 4 -8 17 -15 30 -15 14 0 27 -6 30 -14 3 -8 25 -19 50 -26 24 -7 44 -16 44 -20 0 -5 19 -11 43 -15 23 -4 45 -12 48 -17 3 -5 25 -12 48 -15 22 -3 41 -10 41 -14 0 -5 74 -9 165 -9 91 0 165 4 165 9 0 5 32 11 71 13 38 2 73 9 77 15 4 6 22 14 40 18 17 3 32 11 32 16 0 5 9 9 20 9 11 0 20 5 20 10 0 6 7 10 15 10 8 0 15 5 15 10 0 6 6 10 13 10 8 0 24 9 37 20 13 11 29 20 37 20 7 0 13 4 13 9 0 5 11 12 25 15 14 4 25 13 25 21 0 8 5 15 10 15 12 0 50 36 50 48 0 4 12 18 25 31 14 13 25 28 25 33 0 6 25 34 55 64 30 30 57 65 61 79 3 14 10 25 15 25 5 0 9 11 9 24 0 42 18 76 65 123 25 24 45 51 45 59 0 8 4 14 9 14 5 0 12 16 15 35 4 19 11 35 15 35 5 0 14 20 21 45 7 25 19 45 26 45 8 0 14 7 14 15 0 8 4 15 10 15 5 0 12 17 16 37 4 21 13 44 21 51 7 7 13 22 13 33 0 10 5 19 10 19 6 0 10 6 10 13 0 8 9 24 20 37 11 13 20 29 20 37 0 7 4 13 8 13 4 0 14 27 21 59 7 33 19 62 27 65 8 3 14 17 14 31 0 14 4 25 9 25 6 0 13 20 17 45 3 25 10 45 15 45 5 0 9 6 9 14 0 8 6 21 13 28 8 7 16 44 19 82 3 38 10 71 15 75 11 7 33 80 33 109 0 11 5 22 11 24 6 2 13 32 16 66 3 34 9 62 14 62 4 0 11 36 15 80 3 44 10 80 14 80 4 0 11 20 14 45 4 25 11 45 15 45 4 0 11 41 14 92 4 57 11 94 19 99 9 6 15 60 22 181 5 95 12 175 16 178 4 3 10 43 13 89 4 47 11 87 15 90 5 3 12 40 16 81 3 41 11 77 16 78 13 5 13 72 0 72 -14 0 -13 67 1 72 6 2 13 41 16 91 3 48 10 87 14 87 5 0 9 7 9 15 0 8 -4 15 -10 15 -6 0 -10 48 -10 125 0 77 4 125 10 125 6 0 10 9 10 20 0 11 -4 20 -10 20 -6 0 -10 28 -10 65 0 37 4 65 10 65 6 0 10 16 10 35 0 19 -4 35 -10 35 -13 0 -13 47 0 52 15 5 15 561 1 566 -14 5 -14 52 -1 52 6 0 10 20 10 45 0 25 -4 45 -10 45 -13 0 -13 47 0 52 5 2 12 110 16 256 4 138 10 252 14 252 4 0 11 74 15 165 4 91 11 165 16 165 5 0 9 9 9 20 0 11 -4 20 -10 20 -5 0 -10 7 -10 15 0 8 5 15 10 15 6 0 10 65 10 175 0 97 -4 175 -9 175 -5 0 -12 27 -16 60 -4 33 -11 60 -15 60 -4 0 -11 28 -15 63 -4 34 -12 65 -18 69 -7 4 -13 51 -15 112 -3 59 -8 106 -12 106 -4 0 -10 28 -13 61 -3 34 -10 65 -15 68 -6 3 -13 32 -17 64 -4 31 -11 57 -16 57 -13 0 -11 228 1 232 6 2 13 21 17 43 3 22 10 42 14 45 5 3 12 46 15 95 4 50 12 93 17 97 17 10 16 960 0 965 -16 6 -18 160 -2 165 5 2 12 43 14 93 3 49 9 91 15 93 15 5 13 89 -2 95 -17 5 -14 430 2 435 13 5 14 352 0 352 -5 0 -12 23 -16 50 -4 28 -10 50 -15 50 -5 0 -9 9 -9 20 0 11 5 20 10 20 14 0 13 57 -1 62 -7 2 -12 34 -13 77 -1 40 -7 76 -13 79 -6 4 -14 45 -18 92 -4 47 -11 87 -16 90 -5 3 -14 41 -21 83 -6 42 -15 77 -19 77 -4 0 -10 22 -14 49 -5 41 -11 50 -30 55 -18 5 -26 16 -31 43 -4 21 -13 44 -21 51 -7 7 -13 20 -13 28 0 8 -5 14 -10 14 -6 0 -15 20 -22 45 -7 25 -16 45 -20 45 -4 0 -8 6 -8 13 0 7 -9 20 -20 30 -11 9 -20 23 -20 31 0 8 -7 16 -15 20 -8 3 -15 12 -15 21 0 8 -4 15 -9 15 -5 0 -11 18 -15 40 -3 22 -11 40 -16 40 -6 0 -15 11 -20 25 -5 14 -14 25 -19 25 -5 0 -12 11 -15 25 -4 14 -11 25 -16 25 -6 0 -10 5 -10 11 0 7 -26 37 -58 68 -32 31 -65 71 -73 89 -8 17 -17 32 -21 32 -5 0 -8 7 -8 15 0 9 -7 18 -15 21 -8 3 -17 15 -21 26 -3 11 -22 36 -43 56 -20 21 -43 49 -50 65 -8 15 -18 27 -22 27 -4 0 -17 11 -30 25 -13 13 -28 25 -32 25 -12 0 -37 27 -37 39 0 6 -6 11 -13 11 -6 0 -18 13 -25 28 -7 16 -25 35 -40 43 -15 8 -58 44 -95 81 -37 38 -72 68 -76 68 -5 0 -19 11 -32 25 -13 13 -28 25 -32 25 -5 0 -22 12 -37 28 -45 41 -58 52 -69 52 -11 0 -57 46 -85 84 -10 14 -25 26 -32 26 -8 0 -14 5 -14 10 0 6 -7 10 -15 10 -9 0 -18 6 -21 14 -3 8 -16 17 -30 20 -13 4 -24 11 -24 16 0 6 -7 10 -15 10 -7 0 -18 6 -22 13 -4 7 -20 18 -35 24 -16 7 -28 17 -28 23 0 5 -7 10 -15 10 -9 0 -18 6 -21 14 -3 8 -16 17 -30 20 -13 4 -24 11 -24 16 0 6 -7 10 -15 10 -9 0 -18 7 -21 15 -4 8 -12 15 -20 15 -7 0 -17 6 -21 13 -4 7 -24 20 -43 27 -19 8 -44 24 -55 35 -11 12 -28 24 -37 28 -10 3 -18 11 -18 17 0 5 -9 10 -19 10 -11 0 -26 7 -34 15 -8 7 -26 17 -41 21 -14 3 -26 10 -26 15 0 5 -7 9 -15 9 -7 0 -18 6 -22 13 -4 6 -21 19 -38 27 -16 8 -36 21 -43 28 -7 6 -20 12 -28 12 -8 0 -14 5 -14 10 0 6 -7 10 -15 10 -9 0 -18 6 -21 14 -3 8 -19 18 -35 21 -16 4 -29 11 -29 16 0 5 -7 9 -15 9 -9 0 -18 6 -21 14 -3 8 -25 19 -50 26 -24 7 -44 16 -44 21 0 4 -16 11 -35 15 -19 3 -35 10 -35 14 0 5 -13 11 -30 15 -16 4 -30 11 -30 16 0 5 -6 9 -13 9 -12 0 -24 8 -73 49 -6 5 -30 15 -53 22 -22 7 -41 15 -41 19 0 4 -15 11 -34 14 -19 4 -37 13 -40 21 -3 8 -12 15 -20 15 -8 0 -16 5 -18 11 -2 5 -22 13 -46 16 -23 3 -42 9 -42 13 0 4 -16 11 -35 14 -19 4 -35 11 -35 16 0 6 -11 10 -25 10 -14 0 -28 7 -31 15 -4 8 -15 15 -25 15 -20 0 -60 19 -70 34 -4 4 -27 11 -53 13 -25 3 -46 10 -46 14 0 5 -9 9 -19 9 -11 0 -26 6 -33 14 -8 7 -38 15 -67 18 -35 4 -57 11 -63 22 -5 9 -16 16 -23 16 -8 0 -15 4 -15 9 0 5 -28 14 -62 20 -34 6 -64 15 -67 20 -4 5 -19 13 -34 16 -15 4 -27 11 -27 16 0 4 -16 11 -35 15 -19 3 -35 10 -35 14 0 5 -22 11 -50 15 -27 4 -50 10 -50 15 0 4 -22 10 -49 12 -27 3 -56 12 -64 20 -9 8 -34 18 -56 22 -23 3 -41 10 -41 15 0 5 -18 12 -40 16 -22 4 -40 11 -40 15 0 5 -27 12 -60 16 -33 4 -60 11 -60 15 0 5 -11 9 -24 9 -14 0 -31 6 -38 14 -8 7 -38 17 -66 21 -29 4 -52 10 -52 14 0 9 -82 31 -115 31 -14 0 -25 4 -25 9 0 5 -27 12 -60 16 -33 4 -60 10 -60 15 0 4 -22 10 -50 14 -27 4 -50 11 -50 15 0 5 -32 11 -71 13 -38 2 -73 9 -77 15 -4 5 -33 12 -65 15 -33 3 -62 10 -67 17 -4 8 -36 15 -74 18 -36 3 -66 10 -66 14 0 5 -17 9 -37 9 -59 0 -243 24 -243 31 0 4 -44 10 -97 14 -54 4 -100 11 -103 16 -3 5 -53 12 -110 15 -58 4 -109 12 -113 18 -6 8 -10 7 -14 -1 -5 -15 -80 -18 -85 -3 -4 11 -115 19 -175 13 z  m -713 -1763 c 0 -5 6 -10 13 -10 23 0 67 -25 67 -37 0 -7 7 -13 15 -13 8 0 15 -5 15 -11 0 -6 7 -17 15 -25 8 -9 15 -24 15 -35 0 -10 5 -19 10 -19 6 0 10 -11 10 -25 0 -14 7 -28 15 -31 8 -4 15 -14 15 -24 0 -10 6 -25 13 -32 7 -7 20 -34 27 -60 8 -27 18 -48 22 -48 4 0 10 -16 14 -35 3 -19 10 -35 14 -35 4 0 10 -19 13 -42 3 -24 11 -44 16 -46 6 -2 11 -12 11 -23 0 -14 7 -19 26 -19 14 0 32 -7 40 -15 9 -8 26 -15 40 -15 13 0 24 -4 24 -9 0 -5 13 -12 29 -16 16 -3 32 -13 35 -21 3 -8 12 -14 20 -14 7 0 16 -7 20 -15 3 -8 12 -15 21 -15 8 0 15 -4 15 -10 0 -5 7 -10 15 -10 9 0 40 -24 70 -54 58 -57 81 -110 52 -122 -8 -3 -18 -16 -21 -30 -4 -14 -16 -26 -30 -30 -14 -3 -27 -12 -30 -20 -3 -8 -12 -14 -21 -14 -8 0 -15 -4 -15 -10 0 -5 -11 -10 -24 -10 -14 0 -31 -6 -38 -13 -45 -44 -628 -50 -628 -6 0 4 -15 11 -32 14 -18 4 -36 13 -40 19 -11 16 -290 15 -295 -1 -6 -16 -273 -19 -273 -4 0 5 -29 13 -65 16 -43 5 -65 12 -65 20 0 8 -13 27 -30 43 -27 27 -30 37 -30 91 0 34 4 61 10 61 6 0 10 6 10 13 0 7 16 19 35 27 19 8 35 17 35 22 0 4 6 8 13 8 7 0 24 13 37 30 14 16 30 29 37 30 6 0 41 29 76 65 36 36 68 65 72 65 12 0 85 77 85 89 0 6 5 11 10 11 6 0 10 7 10 15 0 7 6 18 13 22 7 4 18 30 25 58 7 27 17 52 21 55 5 3 11 22 15 43 4 20 11 37 16 37 6 0 13 18 16 40 4 22 10 40 14 40 5 0 11 13 15 28 6 30 47 52 98 52 15 0 27 5 27 10 0 6 43 10 110 10 67 0 110 -4 110 -10 z  m -1111 -2269 c 5 -7 27 -15 50 -18 22 -3 41 -9 41 -14 0 -4 14 -10 30 -14 17 -4 30 -11 30 -16 0 -5 11 -11 25 -15 14 -3 25 -10 25 -15 0 -5 6 -9 14 -9 8 0 21 -6 28 -14 8 -7 25 -17 38 -21 14 -4 36 -20 50 -34 24 -25 25 -31 25 -154 0 -80 -4 -130 -11 -135 -6 -4 -13 -15 -17 -24 -3 -10 -16 -18 -27 -18 -11 0 -20 -4 -20 -10 0 -5 -17 -12 -37 -16 -21 -4 -41 -11 -44 -17 -4 -5 -27 -12 -53 -14 -25 -3 -46 -9 -46 -13 0 -5 -43 -11 -95 -15 -52 -4 -95 -11 -95 -16 0 -4 -36 -11 -80 -15 -44 -3 -80 -10 -80 -14 0 -10 -62 -19 -188 -26 -104 -6 -221 8 -233 28 -3 5 -26 12 -50 15 -24 4 -50 12 -57 20 -7 7 -20 13 -28 13 -7 0 -16 11 -20 24 -3 14 -12 27 -19 30 -8 3 -17 21 -21 40 -3 20 -10 36 -15 36 -5 0 -12 18 -15 40 -4 22 -10 40 -15 40 -5 0 -9 7 -9 15 0 8 5 15 10 15 6 0 10 6 10 14 0 8 6 21 13 28 7 7 19 29 27 48 17 40 40 65 69 75 12 3 21 10 21 14 0 4 25 14 55 21 30 7 55 17 55 21 0 5 18 12 40 15 22 4 40 10 40 15 0 4 16 11 35 15 19 3 35 10 35 14 0 5 14 11 30 15 17 4 30 10 30 15 0 4 16 11 35 14 19 4 35 11 35 16 0 15 41 18 208 16 121 -1 165 -5 171 -15 z  m 3531 -281 c 0 -5 14 -10 31 -10 53 0 209 -23 209 -31 0 -4 14 -10 30 -14 17 -4 30 -11 30 -16 0 -5 11 -9 25 -9 14 0 28 -7 31 -15 4 -8 14 -15 24 -15 10 0 25 -7 33 -15 8 -7 26 -17 41 -21 14 -3 26 -9 26 -13 0 -4 16 -13 35 -21 19 -7 36 -19 39 -27 3 -7 12 -13 21 -13 8 0 15 -4 15 -9 0 -5 11 -12 25 -15 14 -4 25 -11 25 -16 0 -6 7 -10 15 -10 9 0 18 -7 21 -15 4 -8 14 -15 24 -15 10 0 25 -6 32 -13 7 -7 21 -16 31 -20 9 -3 17 -11 17 -17 0 -5 7 -10 14 -10 20 0 58 -38 76 -75 8 -16 21 -36 28 -43 6 -7 12 -19 12 -27 0 -7 7 -15 15 -19 8 -3 15 -12 15 -20 0 -7 7 -16 15 -20 8 -3 15 -12 15 -21 0 -8 4 -15 10 -15 5 0 12 -17 16 -37 4 -21 11 -41 16 -44 5 -3 12 -34 15 -67 5 -51 3 -63 -11 -68 -9 -3 -16 -12 -16 -20 0 -8 -7 -14 -15 -14 -8 0 -15 -3 -15 -7 0 -10 -49 -33 -71 -33 -10 0 -19 -5 -21 -11 -2 -6 -34 -13 -71 -16 -37 -3 -67 -10 -67 -14 0 -5 -58 -9 -130 -9 -71 0 -130 4 -130 9 0 4 -32 11 -71 13 -39 3 -74 10 -78 15 -3 6 -24 13 -46 17 -90 14 -110 19 -116 28 -3 5 -26 12 -50 15 -24 3 -47 10 -50 15 -3 5 -25 12 -48 15 -22 3 -41 9 -41 14 0 4 -16 11 -35 15 -19 3 -35 10 -35 14 0 4 -19 10 -41 13 -23 3 -45 10 -48 15 -3 5 -21 13 -38 17 -18 3 -33 10 -33 15 0 4 -18 10 -40 14 -23 3 -43 13 -46 21 -3 7 -19 17 -35 20 -16 4 -29 10 -29 15 0 5 -13 11 -30 15 -16 4 -30 10 -30 15 0 4 -11 11 -25 14 -14 4 -25 11 -25 16 0 6 -7 10 -15 10 -8 0 -15 7 -15 15 0 8 -7 15 -14 15 -8 0 -27 11 -42 25 -15 14 -33 25 -40 25 -8 0 -14 5 -14 10 0 6 -7 13 -16 17 -9 3 -38 28 -64 54 -27 27 -55 49 -63 49 -9 0 -16 15 -20 41 -3 23 -10 45 -17 49 -6 3 -12 30 -13 59 -2 41 2 55 16 62 9 6 17 15 17 20 0 18 56 68 84 75 14 3 26 9 26 13 0 13 66 31 113 31 26 0 47 5 47 10 0 6 97 10 270 10 173 0 270 -4 270 -10 z "/></g></g></g></svg>